<svg xmlns="http://www.w3.org/2000/svg" viewBox="0 0 816 514" width="816" height="514">
	<defs>
		<clipPath clipPathUnits="userSpaceOnUse" id="cp1">
			<path d="M-2253 -1124L2427 -1124L2427 1996L-2253 1996Z" />
		</clipPath>
		<linearGradient id="grd1" gradientUnits="userSpaceOnUse"  x1="796.012" y1="353.099" x2="-21.12" y2="-12.782">
			<stop offset="0" stop-color="#1d7480"  />
			<stop offset="1" stop-color="#45236e"  />
		</linearGradient>
		<linearGradient id="grd2" gradientUnits="userSpaceOnUse"  x1="733.755" y1="466.167" x2="-83.37" y2="100.29">
			<stop offset="0" stop-color="#1d7480"  />
			<stop offset="1" stop-color="#45236e"  />
		</linearGradient>
		<linearGradient id="grd3" gradientUnits="userSpaceOnUse"  x1="764.636" y1="451.389" x2="-82.729" y2="71.972">
			<stop offset="0" stop-color="#1d7480"  />
			<stop offset="1" stop-color="#45236e"  />
		</linearGradient>
		<linearGradient id="grd4" gradientUnits="userSpaceOnUse"  x1="780.297" y1="416.4" x2="-67.062" y2="36.985">
			<stop offset="0" stop-color="#1d7480"  />
			<stop offset="1" stop-color="#45236e"  />
		</linearGradient>
		<linearGradient id="grd5" gradientUnits="userSpaceOnUse"  x1="795.97" y1="381.416" x2="-51.405" y2="1.994">
			<stop offset="0" stop-color="#1d7480"  />
			<stop offset="1" stop-color="#45236e"  />
		</linearGradient>
		<linearGradient id="grd6" gradientUnits="userSpaceOnUse"  x1="786.152" y1="403.317" x2="-61.196" y2="23.907">
			<stop offset="0" stop-color="#1d7480"  />
			<stop offset="1" stop-color="#45236e"  />
		</linearGradient>
	</defs>
	<style>
		tspan { white-space:pre }
		.shp0 { fill: url(#grd1) } 
		.shp1 { fill: url(#grd2) } 
		.shp2 { fill: url(#grd3) } 
		.shp3 { fill: url(#grd4) } 
		.shp4 { fill: url(#grd5) } 
		.shp5 { fill: url(#grd6) } 
	</style>
	<g id="Page 1" clip-path="url(#cp1)">
		<path id="Path 3" class="shp0" d="M485.09 136.48C476.76 144.61 476.6 157.96 484.73 166.29L540.02 222.94L484.73 279.6C476.6 287.93 476.76 301.28 485.09 309.41C489.19 313.41 494.51 315.4 499.82 315.4C505.3 315.4 510.77 313.28 514.91 309.05L584.56 237.66C592.56 229.48 592.55 216.41 584.56 208.22L514.9 136.84C510.77 132.61 505.29 130.48 499.81 130.48C494.5 130.48 489.19 132.48 485.09 136.48Z" />
		<path id="Path 4" class="shp1" d="M181.58 136.84L111.92 208.22C103.93 216.41 103.93 229.48 111.92 237.66L181.58 309.05C185.71 313.28 191.19 315.4 196.67 315.4C201.98 315.4 207.29 313.41 211.39 309.41C219.72 301.28 219.89 287.93 211.76 279.6L156.46 222.94L211.76 166.29C219.89 157.96 219.72 144.61 211.39 136.48C207.29 132.48 201.98 130.48 196.67 130.48C191.19 130.48 185.72 132.61 181.58 136.84Z" />
		<path id="Path 5" class="shp2" d="M229.17 222.94C229.17 236.9 240.48 248.22 254.44 248.22C268.4 248.22 279.71 236.9 279.71 222.94C279.71 208.99 268.4 197.67 254.44 197.67C240.48 197.67 229.17 208.99 229.17 222.94Z" />
		<path id="Path 6" class="shp3" d="M322.97 222.94C322.97 236.9 334.29 248.22 348.24 248.22C362.2 248.22 373.52 236.9 373.52 222.94C373.52 208.99 362.2 197.67 348.24 197.67C334.29 197.67 322.97 208.99 322.97 222.94Z" />
		<path id="Path 7" class="shp4" d="M416.77 222.94C416.77 236.9 428.09 248.22 442.05 248.22C456.01 248.22 467.32 236.9 467.32 222.94C467.32 208.99 456.01 197.67 442.05 197.67C428.09 197.67 416.77 208.99 416.77 222.94Z" />
		<path id="Path 8" fill-rule="evenodd" class="shp5" d="M641.23 0.88C649.26 0.88 656.59 5.44 660.14 12.64C670.04 32.73 677.87 53.45 683.65 74.7C720.12 77.08 751.17 88.81 774.04 109C801.38 133.13 815.83 168.12 815.83 210.19C815.83 265.8 786.44 317.45 733.08 355.63C693.09 384.24 643.09 402.73 600.24 405.11C536.88 471.88 447.34 513.57 348.24 513.57C156.61 513.57 0.72 357.67 0.72 166.04C0.72 112.24 12.7 60.63 36.34 12.64C39.89 5.44 47.23 0.88 55.26 0.88L641.23 0.88ZM348.24 471.41C516.62 471.41 653.61 334.42 653.61 166.04C653.61 123.12 644.94 81.81 627.82 43.04L68.67 43.04C51.55 81.81 42.87 123.12 42.87 166.04C42.87 334.42 179.86 471.41 348.24 471.41ZM639.66 355.17C663.46 347.93 687.8 336.19 708.54 321.34C738.26 300.08 773.67 263.54 773.67 210.19C773.67 157.84 744.41 125.11 692.48 117.9C694.66 133.72 695.77 149.78 695.77 166.04C695.77 235.74 675.13 300.7 639.66 355.17Z" />
	</g>
</svg>